<?xml version="1.0" encoding="UTF-8"?>
<svg id="_레이어_2" data-name="레이어 2" xmlns="http://www.w3.org/2000/svg" xmlns:xlink="http://www.w3.org/1999/xlink" viewBox="0 0 527.98 251.2">
  <defs>
    <style>
      .cls-1 {
        stroke: #37ff17;
      }

      .cls-1, .cls-2, .cls-3, .cls-4, .cls-5, .cls-6, .cls-7, .cls-8, .cls-9, .cls-10, .cls-11, .cls-12, .cls-13, .cls-14, .cls-15, .cls-16, .cls-17, .cls-18, .cls-19, .cls-20, .cls-21, .cls-22, .cls-23, .cls-24, .cls-25, .cls-26, .cls-27 {
        stroke-linejoin: round;
      }

      .cls-1, .cls-2, .cls-3, .cls-4, .cls-5, .cls-6, .cls-7, .cls-8, .cls-9, .cls-10, .cls-11, .cls-13, .cls-14, .cls-15, .cls-16, .cls-17, .cls-18, .cls-19, .cls-20, .cls-21, .cls-22, .cls-23, .cls-24, .cls-25, .cls-26, .cls-27 {
        stroke-linecap: round;
      }

      .cls-28, .cls-2, .cls-29, .cls-3, .cls-4, .cls-5, .cls-6, .cls-7, .cls-10, .cls-11, .cls-13, .cls-14, .cls-16, .cls-17, .cls-18, .cls-19, .cls-20, .cls-21, .cls-22, .cls-23, .cls-24, .cls-25, .cls-26 {
        stroke: #000;
      }

      .cls-28, .cls-29 {
        stroke-miterlimit: 10;
      }

      .cls-28, .cls-30, .cls-7, .cls-12 {
        fill: none;
      }

      .cls-2 {
        fill: #d46eff;
      }

      .cls-4, .cls-15 {
        fill: #fff;
      }

      .cls-5 {
        fill: #ff1753;
      }

      .cls-6 {
        fill: #d15330;
      }

      .cls-30 {
        stroke-width: 0px;
      }

      .cls-8 {
        fill: #c9ffb9;
        stroke: #85b900;
      }

      .cls-9 {
        stroke: #4571ff;
      }

      .cls-10 {
        fill: #ffa008;
      }

      .cls-11 {
        fill: #e75900;
      }

      .cls-12 {
        stroke: #ff088a;
        stroke-width: 5px;
      }

      .cls-13 {
        fill: #10ffaf;
      }

      .cls-14 {
        fill: #ffd16c;
      }

      .cls-15, .cls-27 {
        stroke: #1c217d;
      }

      .cls-16 {
        fill: #282828;
      }

      .cls-31 {
        clip-path: url(#clippath);
      }

      .cls-17 {
        fill: #2fbaf7;
      }

      .cls-18 {
        fill: #ffb6b6;
      }

      .cls-19 {
        fill: #00d3e7;
      }

      .cls-20 {
        fill: #b8eda2;
      }

      .cls-21 {
        fill: #ff2eec;
      }

      .cls-22 {
        fill: #3254fc;
      }

      .cls-23 {
        fill: #e7ff17;
      }

      .cls-24 {
        fill: #7fb580;
      }

      .cls-25 {
        fill: #69ff12;
      }

      .cls-26 {
        fill: #0023e7;
      }

      .cls-27 {
        fill: #f7ff17;
      }
    </style>
    <clipPath id="clippath">
      <path class="cls-30" d="m109.73,37.99s0-.02,0-.02h-.01l-13.47-25.49-13.47,25.49h-.01s0,.02,0,.02h0s0,0,0,0c.03,3.78,6.06,6.84,13.49,6.84s13.46-3.06,13.49-6.84h0,0Z"/>
    </clipPath>
  </defs>
  <g id="_레이어_1-2" data-name="레이어 1">
    <path class="cls-2" d="m284.41,85.06l12.6,19.4,25.87-12.94,2.72,4.43s-19.06,26.55-33.7,21.45-12.6-13.62-12.6-13.62l2.04-19.74,3.06,1.02Z"/>
    <path class="cls-10" d="m385.01,117.06l-11.4,1.02-54.81,53.96,24.17,27.74,62.98-41.36,12.09-.17s62.3,35.74,69.11,30.98,17.19-28.09,17.19-28.09c0,0-27.23-9.36-33.02-19.57s-42.55-23.83-42.55-23.83l-43.74-.68Z"/>
    <path class="cls-4" d="m98.54,39.11s-24.51,2.04-21.79,24.85l9.19,25.87s10.89,2.04,12.6,0,10.89-9.19,11.23-14.64,2.38-18.72,2.38-18.72c0,0,3.4-10.89-13.62-17.36Z"/>
    <path class="cls-4" d="m85.61,93.91l.34-4.09s12.94,3.06,14.98-.68v7.83s-14.47-.51-15.32-3.06Z"/>
    <path class="cls-18" d="m72.16,95.62s40.34,1.02,43.06,1.87,1.36,55.15,1.36,55.15l-43.4-.34s-3.91-45.11-1.02-56.68Z"/>
    <path class="cls-3" d="m76.41,66.17s-48.68,4.09-56.68-5.62c0,0,12.09,18.89,25.36,19.57,0,0,24.51,3.23,27.4.85s6.98-9.19,6.98-9.19l-3.06-5.62Z"/>
    <path class="cls-24" d="m70.29,106.17s-17.87.17-18.72,14.64,3.4,19.06,3.4,19.06c0,0,37.11-5.45,37.96-11.06l.34-6.13-29.11,3.06,5.79-8,.34-11.57Z"/>
    <path class="cls-4" d="m94.29,122.34s7.83-4.09,9.53,4.26c0,0-2.38,8.34-9.02,2.55s-.51-6.81-.51-6.81Z"/>
    <path class="cls-16" d="m12.41,216.81l-11.91,4.94s17.19,31.66,25.7,28.77l1.87-14.47-15.66-19.23Z"/>
    <path class="cls-4" d="m238.46,39.45l1.02,10.21s8.51,15.66,11.23,18.38,14.98,2.04,14.98,2.04c0,0,9.87-10.55,9.53-17.02s1.02-23.83,1.02-23.83c0,0-2.38-10.21-16.68-10.55s-21.11,20.77-21.11,20.77Z"/>
    <polygon class="cls-4" points="249.69 70.43 248.33 76.89 266.71 73.83 265.69 70.09 249.69 70.43"/>
    <path class="cls-14" d="m238.8,76.21l42.55-3.06s-1.7,58.55-8.17,61.62-31.32,3.06-31.32,3.06l-3.06-61.62Z"/>
    <path class="cls-2" d="m191.14,110.94s39.49-20.43,46.98-20.09l1.7,17.02s-38.81,7.49-45.62,11.91l-3.06-8.85Z"/>
    <path class="cls-4" d="m189.1,111.96s-9.87-3.06-13.96,2.04,3.4,9.87,6.81,9.87,9.87-.34,10.55-5.45-3.4-6.47-3.4-6.47Z"/>
    <path class="cls-22" d="m336.16,86.94s39.49-20.43,46.98-20.09l1.7,17.02s-38.81,7.49-45.62,11.91l-3.06-8.85Z"/>
    <path class="cls-4" d="m328.37,88.47s-7.35-3.06-10.39,2.04,2.53,9.87,5.07,9.87,7.35-.34,7.85-5.45-2.53-6.47-2.53-6.47Z"/>
    <path class="cls-24" d="m117.95,106.17l46.64,7.49,4.43,10.55s-5.45,2.72-6.81,2.04-34.72-.68-40.17,2.38-5.11,2.04-5.11,2.04l1.02-24.51Z"/>
    <path class="cls-4" d="m171.05,125.23s5.79,7.83,10.21.68,3.4-12.94-14.98-10.55l4.77,9.87Z"/>
    <path class="cls-20" d="m207.14,220.21l51.06-55.83,59.91,54.13,26.89-20.77s-38.13-51.06-69.79-64l-35.74,5.11-61.96,51.4"/>
    <path class="cls-4" d="m327.31,88.47s2.72-8.51,10.55.34c7.83,8.85-6.81,6.47-6.81,6.47,0,0-5.11.34-3.74-6.81Z"/>
    <path class="cls-16" d="m202.03,220.55s7.49,17.36,18.72,17.02c0,0-2.72,12.94-12.6,10.89s-17.7-25.53-17.7-25.53l11.57-8.51v6.13Z"/>
    <path class="cls-16" d="m320.5,218.85s-1.02,20.43,11.23,10.21,34.04-16.34,35.4-25.19-24.17-4.09-24.17-4.09l-22.47,19.06Z"/>
    <ellipse class="cls-29" cx="88.29" cy="65.06" rx="2.17" ry="2.3"/>
    <circle class="cls-29" cx="101.44" cy="64.55" r="2.3"/>
    <circle class="cls-28" cx="96.84" cy="70.68" r="3.06"/>
    <circle class="cls-29" cx="250.8" cy="44.13" r="2.04"/>
    <circle class="cls-29" cx="264.46" cy="43.74" r="1.91"/>
    <path class="cls-28" d="m258.46,41.06s-3.06,6.38-2.55,8.68"/>
    <path class="cls-28" d="m253.86,60.72s4.09,3.06,6.64-.77"/>
    <path class="cls-29" d="m102.46,46.68s-22.21,21.36-26.04,19.49-.77-28.43,20.17-28.17c0,0,21.19,4.09,18.64,22.98,0,0-10.21-1.79-12.77-14.3Z"/>
    <path class="cls-4" d="m411.56,2.85s-24.51,2.04-21.79,24.85l9.19,25.87s10.89,2.04,12.6,0,10.89-9.19,11.23-14.64,2.38-18.72,2.38-18.72c0,0,3.4-10.89-13.62-17.36Z"/>
    <path class="cls-4" d="m398.63,57.66l.34-4.09s12.94,3.06,14.98-.68v7.83s-14.47-.51-15.32-3.06Z"/>
    <path class="cls-13" d="m385.18,59.36s40.34,1.02,43.06,1.87,1.36,55.15,1.36,55.15l-43.4-.34s-3.91-45.11-1.02-56.68Z"/>
    <path class="cls-16" d="m493.1,184.47l6.3,5.11s28.43-19.4,28.09-23.83-15.83,2.55-19.23,1.87-6.47-.85-6.47-.85l-8.68,17.7Z"/>
    <path class="cls-25" d="m430.97,69.91l46.64,7.49,4.43,10.55s-5.45,2.72-6.81,2.04-34.72-.68-40.17,2.38-5.11,2.04-5.11,2.04l1.02-24.51Z"/>
    <ellipse class="cls-29" cx="401.31" cy="28.81" rx="2.17" ry="2.3"/>
    <circle class="cls-29" cx="414.46" cy="28.3" r="2.3"/>
    <circle class="cls-28" cx="408.76" cy="36.89" r="2.47"/>
    <path class="cls-6" d="m415.48,10.43s-22.21,21.36-26.04,19.49-.77-28.43,20.17-28.17c0,0,21.19,4.09,18.64,22.98,0,0-10.21-1.79-12.77-14.3Z"/>
    <path class="cls-29" d="m257.44,27.79l-16.85,10.47s2.81,24.77-2.55,27.83l-25.02-7.4s25.79-41.36,37.79-40.85,24.77,4.34,28.09,10.47-8.17,5.36-8.17,5.36l-13.28-5.87Z"/>
    <polygon class="cls-6" points="389.4 17.91 367.6 50 355.39 70.11 369.06 71.62 395.9 46.48 389.4 17.91"/>
    <path class="cls-28" d="m403.9,42.77s3.83,3.57,8.17,1.02"/>
    <path class="cls-7" d="m88.33,76.21s3.57,6.13,10.21,5.11"/>
    <path class="cls-17" d="m71.99,153.32l-11.4,1.02L5.78,208.3l24.17,27.74,62.98-41.36,12.09-.17s62.3,35.74,69.11,30.98,17.19-28.09,17.19-28.09c0,0-27.23-9.36-33.02-19.57s-42.55-23.83-42.55-23.83l-43.74-.68Z"/>
    <path class="cls-16" d="m180.07,220.72l6.3,5.11s28.43-19.4,28.09-23.83-15.83,2.55-19.23,1.87-6.47-.85-6.47-.85l-8.68,17.7Z"/>
    <g>
      <path class="cls-15" d="m110.07,38.08s0-.02,0-.02h-.02l-13.97-25.49-13.97,25.49h-.02s0,.02,0,.02h0s0,0,0,0c.03,3.78,6.28,6.84,13.99,6.84s13.96-3.06,13.99-6.84h0,0Z"/>
      <g class="cls-31">
        <path class="cls-12" d="m89,24.76s10.57.43,13.76-2.72"/>
        <path class="cls-12" d="m83.71,32.59s18.5,2.55,24-3.23"/>
      </g>
    </g>
    <circle class="cls-27" cx="95.84" cy="6.24" r="4.98"/>
    <polygon class="cls-8" points="253.52 60.21 297.91 46.66 299.52 52.61 256.42 63.84 253.52 60.21"/>
    <path class="cls-27" d="m299.88,48.65s17.37-2.97,23.48-6.28c6.11-3.3-3.22-12.56-6.76-6.94l-1.61-4.96s9.65-5.62,12.55.33c0,0,3.86,2.64.97,9.58-2.9,6.94-28.31,11.9-28.31,11.9l-.32-3.63Z"/>
    <polygon class="cls-4" points="483.43 56.16 482.86 95.99 491.91 97.01 492.48 55.14 483.43 56.16"/>
    <polygon class="cls-21" points="491.97 48.5 497.59 54.63 508.82 43.39 503.2 36.24 491.97 48.5"/>
    <polygon class="cls-23" points="476.14 39.99 479.43 51.05 484.82 43.68 481.53 31.14 476.14 39.99"/>
    <polygon class="cls-5" points="493.5 23.99 487.88 38.29 492.99 40.33 501.67 25.52 493.5 23.99"/>
    <polygon class="cls-19" points="473.59 14.8 481.24 27.05 486.35 23.48 480.22 9.69 473.59 14.8"/>
    <polygon class="cls-26" points="513.93 25.01 507.8 32.16 512.9 36.24 518.52 26.03 513.93 25.01"/>
    <polygon class="cls-11" points="507.8 .5 499.12 17.86 504.22 17.86 510.86 3.56 507.8 .5"/>
    <line class="cls-1" x1="483.88" y1="64.41" x2="491.54" y2="62.12"/>
    <line class="cls-9" x1="483.88" y1="75.56" x2="491.37" y2="73.35"/>
    <line class="cls-1" x1="483.71" y1="93.1" x2="491.37" y2="90.8"/>
    <path class="cls-4" d="m484.07,88.98s5.79,7.83,10.21.68,3.4-12.94-14.98-10.55l4.77,9.87Z"/>
  </g>
</svg>