<?xml version="1.0" encoding="UTF-8"?>
<svg id="_레이어_2" data-name="레이어 2" xmlns="http://www.w3.org/2000/svg" viewBox="0 0 219.04 206.53">
  <defs>
    <style>
      .cls-1 {
        fill: #1c217d;
        font-family: FranklinGothic-Medium, 'Franklin Gothic Medium';
        font-size: 15px;
        font-weight: 500;
      }
    </style>
  </defs>
  <g id="_레이어_1-2" data-name="레이어 1">
    <text class="cls-1" transform="translate(163.94 19.58) rotate(38.42)"><tspan x="0" y="0">2</tspan></text>
    <text class="cls-1" transform="translate(170.67 24.91) rotate(43.15)"><tspan x="0" y="0">0</tspan></text>
    <text class="cls-1" transform="translate(176.94 30.77) rotate(47.88)"><tspan x="0" y="0">2</tspan></text>
    <text class="cls-1" transform="translate(182.44 36.82) rotate(52.39)"><tspan x="0" y="0">4</tspan></text>
    <text class="cls-1" transform="translate(187.66 43.72) rotate(55.74)"><tspan x="0" y="0">.</tspan></text>
    <text class="cls-1" transform="translate(189.65 46.63) rotate(57.73)"><tspan x="0" y="0"> </tspan></text>
    <text class="cls-1" transform="translate(191.64 49.63) rotate(61.13)"><tspan x="0" y="0">0</tspan></text>
    <text class="cls-1" transform="translate(195.79 57.15) rotate(65.91)"><tspan x="0" y="0">5</tspan></text>
    <text class="cls-1" transform="translate(199.26 65.07) rotate(69.29)"><tspan x="0" y="0">.</tspan></text>
    <text class="cls-1" transform="translate(200.51 68.37) rotate(71.3)"><tspan x="0" y="0"> </tspan></text>
    <text class="cls-1" transform="translate(201.73 71.75) rotate(74.72)"><tspan x="0" y="0">2</tspan></text>
    <text class="cls-1" transform="translate(204 80.03) rotate(79.51)"><tspan x="0" y="0">5</tspan></text>
    <text class="cls-1" transform="translate(205.5 88.52) rotate(82.87)"><tspan x="0" y="0">.</tspan></text>
    <text class="cls-1" transform="translate(205.94 92.02) rotate(84.86)"><tspan x="0" y="0"> </tspan></text>
    <text class="cls-1" transform="translate(206.34 95.61) rotate(88.16)"><tspan x="0" y="0">S</tspan></text>
    <text class="cls-1" transform="translate(206.63 103.9) rotate(92.81)"><tspan x="0" y="0">A</tspan></text>
    <text class="cls-1" transform="translate(206.24 111.95) rotate(96.76)"><tspan x="0" y="0">T</tspan></text>
    <text class="cls-1" transform="translate(205.36 119.02) rotate(99.75)"><tspan x="0" y="0"> </tspan></text>
  </g>
</svg>