<?xml version="1.0" encoding="UTF-8"?>
<svg id="_레이어_2" data-name="레이어 2" xmlns="http://www.w3.org/2000/svg" viewBox="0 0 36.1 33.16">
  <defs>
    <style>
      .cls-1 {
        fill: #64652b;
      }

      .cls-1, .cls-2 {
        stroke: #231815;
        stroke-linejoin: round;
      }

      .cls-2 {
        fill: #e9a2c6;
      }
    </style>
  </defs>
  <g id="_앞판" data-name="앞판">
    <path class="cls-2" d="m16.18,8.73S19.9-1.32,25.91.79c0,0,4.09,2.48-1.38,8.77,0,0,5.97-3.95,9.55-2.8,0,0,6.84,3.81-8.49,9.73,0,0,9-1.93,7.67,8.72,0,0-2.53,7.12-11.43-4.32,0,0-1.56,11.66-6.2,11.75s-1.79-10.56-1.79-10.56c0,0-3.44,7.99-7.53,7.99s-9.27-8.91.96-12.35c0,0-11.11-3.21-4.87-11.25s13.77,2.25,13.77,2.25Z"/>
    <path class="cls-1" d="m22.46,10.17s-12.07-1.89-9.63,8.02c0,0,1.65,3.12,6.61,0,4.05-2.96,4.98-4.07,3.02-8.02Z"/>
  </g>
</svg>