<?xml version="1.0" encoding="UTF-8"?>
<svg id="_레이어_2" data-name="레이어 2" xmlns="http://www.w3.org/2000/svg" viewBox="0 0 27.17 30.25">
  <defs>
    <style>
      .cls-1 {
        fill: #95caee;
      }

      .cls-1, .cls-2 {
        stroke: #231815;
        stroke-linejoin: round;
      }

      .cls-2 {
        fill: #72be6e;
      }
    </style>
  </defs>
  <g id="_앞판" data-name="앞판">
    <path class="cls-1" d="m12.2,6.51S4.2,1.74,3.01,7.87s.85,8.34,2.89,8.17c0,0-9.56,4.09-3.25,10.89,0,0,5.46,5.45,8.18-4.34,0,0-7.15,8.09,2.89,7.06s2.73-9.53,2.73-9.53c0,0,7.83,5.47,9.87-2.88s-7.32-3.14-7.32-3.14c0,0,8.41-2.49,7.61-8.11-.8-5.62-7.44,1.36-7.44,1.36,0,0,4.09-4.85,0-6.59-4.09-1.75-6.98,5.74-6.98,5.74Z"/>
    <path class="cls-2" d="m16.11,9.4s-9.02-.34-5.62,6.98c3.4,7.32,10.38-3.91,5.62-6.98Z"/>
  </g>
</svg>