<?xml version="1.0" encoding="UTF-8"?>
<svg id="_레이어_2" data-name="레이어 2" xmlns="http://www.w3.org/2000/svg" viewBox="0 0 46.18 45.24">
  <defs>
    <style>
      .cls-1 {
        fill: #d9bcd9;
      }

      .cls-1, .cls-2 {
        stroke: #231815;
        stroke-linejoin: round;
      }

      .cls-2 {
        fill: #f8e592;
      }
    </style>
  </defs>
  <g id="_앞판" data-name="앞판">
    <path class="cls-2" d="m20.68,11.83S25.46-2,33.2.9c0,0,5.26,3.41-1.77,12.07,0,0,7.68-5.43,12.29-3.85,0,0,8.8,5.24-10.93,13.39,0,0,11.58-2.65,9.87,12,0,0-3.25,9.79-14.71-5.94,0,0-2.01,16.05-7.98,16.17-5.97.13-2.3-14.53-2.3-14.53,0,0-4.43,10.99-9.69,10.99s-11.94-12.26,1.24-16.99c0,0-14.3-4.42-6.26-15.48,8.04-11.06,17.73,3.1,17.73,3.1Z"/>
    <path class="cls-1" d="m28.76,13.81s-15.53-2.61-12.39,11.03c0,0,2.13,4.3,8.51,0,5.21-4.07,6.41-5.61,3.89-11.03Z"/>
  </g>
</svg>