<?xml version="1.0" encoding="UTF-8"?>
<svg id="_레이어_2" data-name="레이어 2" xmlns="http://www.w3.org/2000/svg" viewBox="0 0 286.11 286.11">
  <defs>
    <style>
      .cls-1, .cls-2 {
        fill: #1c217d;
      }

      .cls-1, .cls-3 {
        font-family: BodoniMT-Italic, 'Bodoni MT';
        font-size: 26px;
        font-style: italic;
      }

      .cls-2 {
        font-family: FranklinGothic-Medium, 'Franklin Gothic Medium';
        font-size: 15px;
        font-weight: 500;
      }

      .cls-4 {
        fill: none;
        stroke: #061058;
        stroke-miterlimit: 10;
      }
    </style>
  </defs>
  <g id="_레이어_1-2" data-name="레이어 1">
    <path class="cls-4" d="m163.96,284.08c-6.82,1-13.81,1.52-20.91,1.52C64.32,285.61.5,221.78.5,143.05S64.32.5,143.05.5s142.55,63.82,142.55,142.55c0,25.19-6.53,48.86-18,69.39"/>
    <text class="cls-2" transform="translate(203.73 59.37) rotate(38.42)"><tspan x="0" y="0">2</tspan></text>
    <text class="cls-2" transform="translate(210.46 64.7) rotate(43.15)"><tspan x="0" y="0">0</tspan></text>
    <text class="cls-2" transform="translate(216.72 70.56) rotate(47.88)"><tspan x="0" y="0">2</tspan></text>
    <text class="cls-2" transform="translate(222.23 76.61) rotate(52.39)"><tspan x="0" y="0">4</tspan></text>
    <text class="cls-2" transform="translate(227.45 83.5) rotate(55.74)"><tspan x="0" y="0">.</tspan></text>
    <text class="cls-2" transform="translate(229.44 86.42) rotate(57.73)"><tspan x="0" y="0"> </tspan></text>
    <text class="cls-2" transform="translate(231.42 89.41) rotate(61.13)"><tspan x="0" y="0">0</tspan></text>
    <text class="cls-2" transform="translate(235.58 96.93) rotate(65.91)"><tspan x="0" y="0">5</tspan></text>
    <text class="cls-2" transform="translate(239.04 104.86) rotate(69.29)"><tspan x="0" y="0">.</tspan></text>
    <text class="cls-2" transform="translate(240.29 108.16) rotate(71.3)"><tspan x="0" y="0"> </tspan></text>
    <text class="cls-2" transform="translate(241.52 111.54) rotate(74.72)"><tspan x="0" y="0">2</tspan></text>
    <text class="cls-2" transform="translate(243.79 119.81) rotate(79.51)"><tspan x="0" y="0">5</tspan></text>
    <text class="cls-2" transform="translate(245.29 128.31) rotate(82.87)"><tspan x="0" y="0">.</tspan></text>
    <text class="cls-2" transform="translate(245.73 131.81) rotate(84.86)"><tspan x="0" y="0"> </tspan></text>
    <text class="cls-2" transform="translate(246.13 135.4) rotate(88.16)"><tspan x="0" y="0">S</tspan></text>
    <text class="cls-2" transform="translate(246.42 143.69) rotate(92.81)"><tspan x="0" y="0">A</tspan></text>
    <text class="cls-2" transform="translate(246.02 151.74) rotate(96.76)"><tspan x="0" y="0">T</tspan></text>
    <text class="cls-2" transform="translate(245.14 158.81) rotate(99.75)"><tspan x="0" y="0"> </tspan></text>
    <text class="cls-1" transform="translate(159.82 91.74) rotate(21.5)"><tspan x="0" y="0"> </tspan></text>
    <text class="cls-1" transform="translate(165.32 93.88) rotate(27.8)"><tspan x="0" y="0"> </tspan></text>
    <text class="cls-1" transform="translate(170.55 96.61) rotate(34.06)"><tspan x="0" y="0"> </tspan></text>
    <text class="cls-1" transform="translate(175.45 99.89) rotate(40.3)"><tspan x="0" y="0"> </tspan></text>
    <text class="cls-1" transform="translate(179.97 103.69) rotate(46.54)"><tspan x="0" y="0"> </tspan></text>
    <text class="cls-1" transform="translate(184.05 107.96) rotate(52.78)"><tspan x="0" y="0"> </tspan></text>
    <text class="cls-1" transform="translate(187.63 112.63) rotate(59.02)"><tspan x="0" y="0"> </tspan></text>
    <text class="cls-1" transform="translate(190.7 117.69) rotate(65.32)"><tspan x="0" y="0"> </tspan></text>
    <text class="cls-1" transform="translate(193.18 123.03) rotate(71.61)"><tspan x="0" y="0"> </tspan></text>
    <text class="cls-1" transform="translate(195.07 128.61) rotate(77.92)"><tspan x="0" y="0"> </tspan></text>
    <text class="cls-1" transform="translate(196.33 134.37) rotate(84.2)"><tspan x="0" y="0"> </tspan></text>
    <text class="cls-1" transform="translate(196.98 140.17) rotate(90.93)"><tspan x="0" y="0"> </tspan></text>
    <text class="cls-1" transform="translate(196.93 146.16) rotate(96.61)"><tspan x="0" y="0"> </tspan></text>
    <text class="cls-1" transform="translate(196.28 152.01) rotate(102.89)"><tspan x="0" y="0"> </tspan></text>
    <text class="cls-1" transform="translate(194.99 157.75) rotate(109.18)"><tspan x="0" y="0"> </tspan></text>
    <text class="cls-1" transform="translate(193.07 163.35) rotate(115.51)"><tspan x="0" y="0"> </tspan></text>
    <text class="cls-1" transform="translate(190.56 168.68) rotate(121.78)"><tspan x="0" y="0"> </tspan></text>
    <text class="cls-1" transform="translate(187.47 173.71) rotate(128.03)"><tspan x="0" y="0"> </tspan></text>
    <text class="cls-1" transform="translate(183.85 178.38) rotate(134.28)"><tspan x="0" y="0"> </tspan></text>
    <text class="cls-1" transform="translate(179.75 182.62) rotate(140.51)"><tspan x="0" y="0"> </tspan></text>
    <text class="cls-1" transform="translate(175.23 186.38) rotate(146.73)"><tspan x="0" y="0"> </tspan></text>
    <text class="cls-1" transform="translate(170.31 189.64) rotate(153.01)"><tspan x="0" y="0"> </tspan></text>
    <text class="cls-1" transform="translate(165.06 192.35) rotate(159.32)"><tspan x="0" y="0"> </tspan></text>
    <text class="cls-1" transform="translate(159.56 194.45) rotate(165.62)"><tspan x="0" y="0"> </tspan></text>
    <text class="cls-1" transform="translate(153.85 195.94) rotate(171.92)"><tspan x="0" y="0"> </tspan></text>
    <text class="cls-1" transform="translate(148 196.8) rotate(178.16)"><tspan x="0" y="0"> </tspan></text>
    <text class="cls-1" transform="translate(142.11 197.01) rotate(-175.67)"><tspan x="0" y="0"> </tspan></text>
    <text class="cls-1" transform="translate(136.24 196.59) rotate(-169.42)"><tspan x="0" y="0"> </tspan></text>
    <text class="cls-1" transform="translate(130.44 195.54) rotate(-163.12)"><tspan x="0" y="0"> </tspan></text>
    <text class="cls-1" transform="translate(124.79 193.85) rotate(-156.81)"><tspan x="0" y="0"> </tspan></text>
    <text class="cls-1" transform="translate(119.35 191.55) rotate(-150.51)"><tspan x="0" y="0"> </tspan></text>
    <text class="cls-1" transform="translate(114.19 188.66) rotate(-144.24)"><tspan x="0" y="0"> </tspan></text>
    <text class="cls-1" transform="translate(109.39 185.24) rotate(-138.01)"><tspan x="0" y="0"> </tspan></text>
    <text class="cls-1" transform="translate(104.99 181.31) rotate(-131.78)"><tspan x="0" y="0"> </tspan></text>
    <text class="cls-1" transform="translate(101.04 176.93) rotate(-125.55)"><tspan x="0" y="0"> </tspan></text>
    <text class="cls-1" transform="translate(97.59 172.14) rotate(-119.27)"><tspan x="0" y="0"> </tspan></text>
    <text class="cls-1" transform="translate(94.68 166.99) rotate(-112.97)"><tspan x="0" y="0"> </tspan></text>
    <text class="cls-1" transform="translate(92.03 162.04) rotate(-102.19)"><tspan x="0" y="0">S</tspan></text>
    <text class="cls-1" transform="translate(89.1 147.8) rotate(-89.07)"><tspan x="0" y="0">e</tspan></text>
    <text class="cls-1" transform="translate(89.06 138.77) rotate(-79.65)"><tspan x="0" y="0">o</tspan></text>
    <text class="cls-1" transform="translate(90.64 128.69) rotate(-67.21)"><tspan x="0" y="0">u</tspan></text>
    <text class="cls-1" transform="translate(96.03 116.52) rotate(-56.78)"><tspan x="0" y="0">l</tspan></text>
    <text class="cls-1" transform="translate(99.6 111.05) rotate(-50.21)"><tspan x="0" y="0"> </tspan></text>
    <text class="cls-1" transform="translate(102.63 106.31) rotate(-38.21)"><tspan x="0" y="0">F</tspan></text>
    <text class="cls-1" transform="translate(113.93 97.38) rotate(-26.69)"><tspan x="0" y="0">o</tspan></text>
    <text class="cls-1" transform="translate(123.2 92.75) rotate(-16.63)"><tspan x="0" y="0">r</tspan></text>
    <text class="cls-1" transform="translate(131.11 90.28) rotate(-7.52)"><tspan x="0" y="0">e</tspan></text>
    <text class="cls-1" transform="translate(140.05 89.05) rotate(1.95)"><tspan x="0" y="0">s</tspan></text>
    <text class="cls-1" transform="translate(149.18 89.41) rotate(10.2)"><tspan x="0" y="0">t</tspan></text>
    <text class="cls-3" transform="translate(155.63 90.56) rotate(16.83)"><tspan x="0" y="0"> </tspan></text>
  </g>
</svg>