<?xml version="1.0" encoding="UTF-8"?>
<svg id="_레이어_2" data-name="레이어 2" xmlns="http://www.w3.org/2000/svg" viewBox="0 0 150.71 150.7">
  <defs>
    <style>
      .cls-1 {
        fill: #1c217d;
      }

      .cls-1, .cls-2 {
        font-family: BodoniMT-Italic, 'Bodoni MT';
        font-size: 26px;
        font-style: italic;
      }
    </style>
  </defs>
  <g id="_레이어_1-2" data-name="레이어 1">
    <text class="cls-1" transform="translate(92.14 24.01) rotate(21.5)"><tspan x="0" y="0"> </tspan></text>
    <text class="cls-1" transform="translate(97.64 26.14) rotate(27.8)"><tspan x="0" y="0"> </tspan></text>
    <text class="cls-1" transform="translate(102.87 28.87) rotate(34.06)"><tspan x="0" y="0"> </tspan></text>
    <text class="cls-1" transform="translate(107.77 32.15) rotate(40.3)"><tspan x="0" y="0"> </tspan></text>
    <text class="cls-1" transform="translate(112.29 35.95) rotate(46.54)"><tspan x="0" y="0"> </tspan></text>
    <text class="cls-1" transform="translate(116.37 40.22) rotate(52.78)"><tspan x="0" y="0"> </tspan></text>
    <text class="cls-1" transform="translate(119.95 44.89) rotate(59.02)"><tspan x="0" y="0"> </tspan></text>
    <text class="cls-1" transform="translate(123.02 49.95) rotate(65.32)"><tspan x="0" y="0"> </tspan></text>
    <text class="cls-1" transform="translate(125.5 55.29) rotate(71.61)"><tspan x="0" y="0"> </tspan></text>
    <text class="cls-1" transform="translate(127.38 60.87) rotate(77.92)"><tspan x="0" y="0"> </tspan></text>
    <text class="cls-1" transform="translate(128.65 66.64) rotate(84.2)"><tspan x="0" y="0"> </tspan></text>
    <text class="cls-1" transform="translate(129.3 72.44) rotate(90.93)"><tspan x="0" y="0"> </tspan></text>
    <text class="cls-1" transform="translate(129.25 78.42) rotate(96.61)"><tspan x="0" y="0"> </tspan></text>
    <text class="cls-1" transform="translate(128.6 84.28) rotate(102.89)"><tspan x="0" y="0"> </tspan></text>
    <text class="cls-1" transform="translate(127.31 90.01) rotate(109.18)"><tspan x="0" y="0"> </tspan></text>
    <text class="cls-1" transform="translate(125.39 95.61) rotate(115.51)"><tspan x="0" y="0"> </tspan></text>
    <text class="cls-1" transform="translate(122.88 100.94) rotate(121.78)"><tspan x="0" y="0"> </tspan></text>
    <text class="cls-1" transform="translate(119.79 105.97) rotate(128.03)"><tspan x="0" y="0"> </tspan></text>
    <text class="cls-1" transform="translate(116.17 110.64) rotate(134.28)"><tspan x="0" y="0"> </tspan></text>
    <text class="cls-1" transform="translate(112.07 114.89) rotate(140.51)"><tspan x="0" y="0"> </tspan></text>
    <text class="cls-1" transform="translate(107.55 118.65) rotate(146.73)"><tspan x="0" y="0"> </tspan></text>
    <text class="cls-1" transform="translate(102.63 121.91) rotate(153.01)"><tspan x="0" y="0"> </tspan></text>
    <text class="cls-1" transform="translate(97.38 124.61) rotate(159.32)"><tspan x="0" y="0"> </tspan></text>
    <text class="cls-1" transform="translate(91.88 126.71) rotate(165.62)"><tspan x="0" y="0"> </tspan></text>
    <text class="cls-1" transform="translate(86.17 128.2) rotate(171.92)"><tspan x="0" y="0"> </tspan></text>
    <text class="cls-1" transform="translate(80.32 129.06) rotate(178.16)"><tspan x="0" y="0"> </tspan></text>
    <text class="cls-1" transform="translate(74.43 129.27) rotate(-175.67)"><tspan x="0" y="0"> </tspan></text>
    <text class="cls-1" transform="translate(68.55 128.86) rotate(-169.42)"><tspan x="0" y="0"> </tspan></text>
    <text class="cls-1" transform="translate(62.76 127.8) rotate(-163.12)"><tspan x="0" y="0"> </tspan></text>
    <text class="cls-1" transform="translate(57.11 126.11) rotate(-156.81)"><tspan x="0" y="0"> </tspan></text>
    <text class="cls-1" transform="translate(51.67 123.81) rotate(-150.51)"><tspan x="0" y="0"> </tspan></text>
    <text class="cls-1" transform="translate(46.51 120.92) rotate(-144.24)"><tspan x="0" y="0"> </tspan></text>
    <text class="cls-1" transform="translate(41.71 117.5) rotate(-138.01)"><tspan x="0" y="0"> </tspan></text>
    <text class="cls-1" transform="translate(37.31 113.57) rotate(-131.78)"><tspan x="0" y="0"> </tspan></text>
    <text class="cls-1" transform="translate(33.36 109.2) rotate(-125.55)"><tspan x="0" y="0"> </tspan></text>
    <text class="cls-1" transform="translate(29.91 104.4) rotate(-119.27)"><tspan x="0" y="0"> </tspan></text>
    <text class="cls-1" transform="translate(27 99.26) rotate(-112.97)"><tspan x="0" y="0"> </tspan></text>
    <text class="cls-1" transform="translate(24.35 94.3) rotate(-102.19)"><tspan x="0" y="0">S</tspan></text>
    <text class="cls-1" transform="translate(21.42 80.06) rotate(-89.07)"><tspan x="0" y="0">e</tspan></text>
    <text class="cls-1" transform="translate(21.38 71.03) rotate(-79.65)"><tspan x="0" y="0">o</tspan></text>
    <text class="cls-1" transform="translate(22.96 60.96) rotate(-67.21)"><tspan x="0" y="0">u</tspan></text>
    <text class="cls-1" transform="translate(28.34 48.78) rotate(-56.78)"><tspan x="0" y="0">l</tspan></text>
    <text class="cls-1" transform="translate(31.92 43.31) rotate(-50.21)"><tspan x="0" y="0"> </tspan></text>
    <text class="cls-1" transform="translate(34.95 38.57) rotate(-38.21)"><tspan x="0" y="0">F</tspan></text>
    <text class="cls-1" transform="translate(46.25 29.65) rotate(-26.69)"><tspan x="0" y="0">o</tspan></text>
    <text class="cls-1" transform="translate(55.52 25.01) rotate(-16.63)"><tspan x="0" y="0">r</tspan></text>
    <text class="cls-1" transform="translate(63.42 22.55) rotate(-7.52)"><tspan x="0" y="0">e</tspan></text>
    <text class="cls-1" transform="translate(72.37 21.31) rotate(1.95)"><tspan x="0" y="0">s</tspan></text>
    <text class="cls-1" transform="translate(81.5 21.67) rotate(10.2)"><tspan x="0" y="0">t</tspan></text>
    <text class="cls-2" transform="translate(87.95 22.82) rotate(16.83)"><tspan x="0" y="0"> </tspan></text>
  </g>
</svg>