<?xml version="1.0" encoding="UTF-8"?>
<svg id="_레이어_2" data-name="레이어 2" xmlns="http://www.w3.org/2000/svg" viewBox="0 0 147.04 173.42">
  <defs>
    <style>
      .cls-1 {
        fill: none;
        stroke: #000;
        stroke-linecap: round;
        stroke-linejoin: round;
      }
    </style>
  </defs>
  <g id="_레이어_1-2" data-name="레이어 1">
    <g>
      <path class="cls-1" d="m131.99,8.49l-85.79,28.09S41.35,4.15,59.99.83s35.49,19.4,35.49,19.4"/>
      <path class="cls-1" d="m46.97,37.6l1.28,8.17s-17.11-2.55-15.57,3.83,8.17,8.43,20.17,7.66c0,0-31.4,18.13-34.21,46.47s17.36,30.38,17.36,30.38c0,0,7.4-1.28,1.79-17.62,0,0,4.34,14.04,13.79,13.53,0,0,6.13-3.57-4.85-14.04,0,0,6.13,12.26,13.02,11.23,0,0,4.09-7.15-2.04-16.34l-5.87-6.89,23.74-33.96"/>
      <polyline class="cls-1" points="37.52 135.9 33.95 169.09 93.95 172.92 77.86 159.64 78.63 131.04"/>
      <path class="cls-1" d="m85.52,27.9s2.04,11.74-12.51,5.36c0,0,10.47,8.68,2.81,15.83s-15.57-3.32-15.57-3.32"/>
      <path class="cls-1" d="m88.84,27.13s7.4,8.68,9.96-4.09"/>
      <path class="cls-1" d="m92.16,37.6s8.43-17.87,16.34-13.79c0,0,3.83,0,.51,13.53"/>
      <path class="cls-1" d="m85.01,46.28l20.68-10.47s9.19,17.87,1.02,24-16.34-2.81-21.7-13.53Z"/>
      <path class="cls-1" d="m76.59,50.87s3.57,6.64,12.51,4.09"/>
      <line class="cls-1" x1="106.2" y1="61.85" x2="109.78" y2="69.51"/>
      <line class="cls-1" x1="109.27" y1="58.79" x2="119.48" y2="59.3"/>
      <path class="cls-1" d="m143.73,83.3l-18.38-23.23s-30.13,15.06-22.98,24.51,22.72-6.64,22.72-6.64c0,0-15.32,9.7-12.77,17.11s16.6-8.43,16.6-8.43c0,0-12.26,6.64-9.7,12.77s27.32-13.02,27.32-13.02"/>
      <line class="cls-1" x1="127.65" y1="101.17" x2="129.18" y2="105.26"/>
      <line class="cls-1" x1="117.95" y1="110.11" x2="138.63" y2="100.92"/>
      <polyline class="cls-1" points="17.35 88.41 .5 89.17 1.27 117 18.63 117"/>
      <path class="cls-1" d="m62.54,90.19h11.74s6.89,3.32,8.43,9.19l13.79,1.79-1.02,6.13s-14.55-2.81-17.87,3.32-13.28,6.64-13.28,6.64l-4.09-.26"/>
      <path class="cls-1" d="m15.82,96.32s27.83,2.04,32.94,5.62"/>
      <line class="cls-1" x1="70.71" y1="137.68" x2="101.1" y2="126.96"/>
      <polyline class="cls-1" points="108.24 99.38 115.65 152.49 133.78 161.94 91.39 161.68"/>
    </g>
  </g>
</svg>