<?xml version="1.0" encoding="UTF-8"?>
<svg id="_레이어_2" data-name="레이어 2" xmlns="http://www.w3.org/2000/svg" viewBox="0 0 527.98 249.95">
  <defs>
    <style>
      .cls-1, .cls-2 {
        fill: none;
      }

      .cls-1, .cls-2, .cls-3, .cls-4 {
        stroke: #fff;
      }

      .cls-1, .cls-4 {
        stroke-miterlimit: 10;
      }

      .cls-2, .cls-3 {
        stroke-linecap: round;
        stroke-linejoin: round;
      }

      .cls-3, .cls-4 {
        fill: #fff;
      }
    </style>
  </defs>
  <g id="_레이어_1-2" data-name="레이어 1">
    <path class="cls-2" d="m385.01,115.82l-11.4,1.02-54.81,53.96,24.17,27.74,62.98-41.36,12.09-.17s62.3,35.74,69.11,30.98,17.19-28.09,17.19-28.09c0,0-27.23-9.36-33.02-19.57s-42.55-23.83-42.55-23.83l-43.74-.68Z"/>
    <path class="cls-2" d="m98.54,37.86s-24.51,2.04-21.79,24.85l9.19,25.87s10.89,2.04,12.6,0,10.89-9.19,11.23-14.64,2.38-18.72,2.38-18.72c0,0,3.4-10.89-13.62-17.36Z"/>
    <path class="cls-2" d="m85.61,92.67l.34-4.09s12.94,3.06,14.98-.68v7.83s-14.47-.51-15.32-3.06Z"/>
    <path class="cls-2" d="m72.16,94.37s40.34,1.02,43.06,1.87,1.36,55.15,1.36,55.15l-43.4-.34s-3.91-45.11-1.02-56.68Z"/>
    <path class="cls-3" d="m76.41,64.93s-48.68,4.09-56.68-5.62c0,0,12.09,18.89,25.36,19.57,0,0,24.51,3.23,27.4.85s6.98-9.19,6.98-9.19l-3.06-5.62Z"/>
    <path class="cls-2" d="m70.29,104.93s-17.87.17-18.72,14.64,3.4,19.06,3.4,19.06c0,0,37.11-5.45,37.96-11.06l.34-6.13-29.11,3.06,5.79-8,.34-11.57Z"/>
    <path class="cls-2" d="m94.29,121.1s7.83-4.09,9.53,4.26c0,0-2.38,8.34-9.02,2.55s-.51-6.81-.51-6.81Z"/>
    <path class="cls-2" d="m71.99,152.08l-11.4,1.02L5.78,207.06l24.17,27.74,62.98-41.36,12.09-.17s62.3,35.74,69.11,30.98,17.19-28.09,17.19-28.09c0,0-27.23-9.36-33.02-19.57s-42.55-23.83-42.55-23.83l-43.74-.68Z"/>
    <path class="cls-2" d="m12.41,215.57l-11.91,4.94s17.19,31.66,25.7,28.77l1.87-14.47-15.66-19.23Z"/>
    <path class="cls-2" d="m180.07,219.48l6.3,5.11s28.43-19.4,28.09-23.83-15.83,2.55-19.23,1.87-6.47-.85-6.47-.85l-8.68,17.7Z"/>
    <path class="cls-2" d="m238.46,38.2l1.02,10.21s8.51,15.66,11.23,18.38,14.98,2.04,14.98,2.04c0,0,9.87-10.55,9.53-17.02s1.02-23.83,1.02-23.83c0,0-2.38-10.21-16.68-10.55s-21.11,20.77-21.11,20.77Z"/>
    <polygon class="cls-2" points="249.69 69.18 248.33 75.65 266.71 72.59 265.69 68.84 249.69 69.18"/>
    <path class="cls-2" d="m238.8,74.97l42.55-3.06s-1.7,58.55-8.17,61.62-31.32,3.06-31.32,3.06l-3.06-61.62Z"/>
    <path class="cls-2" d="m191.14,109.69s39.49-20.43,46.98-20.09l1.7,17.02s-38.81,7.49-45.62,11.91l-3.06-8.85Z"/>
    <path class="cls-2" d="m189.1,110.71s-9.87-3.06-13.96,2.04,3.4,9.87,6.81,9.87,9.87-.34,10.55-5.45-3.4-6.47-3.4-6.47Z"/>
    <path class="cls-2" d="m336.16,85.69s39.49-20.43,46.98-20.09l1.7,17.02s-38.81,7.49-45.62,11.91l-3.06-8.85Z"/>
    <path class="cls-2" d="m328.37,87.23s-7.35-3.06-10.39,2.04,2.53,9.87,5.07,9.87,7.35-.34,7.85-5.45-2.53-6.47-2.53-6.47Z"/>
    <path class="cls-2" d="m117.95,104.93l46.64,7.49,4.43,10.55s-5.45,2.72-6.81,2.04-34.72-.68-40.17,2.38-5.11,2.04-5.11,2.04l1.02-24.51Z"/>
    <path class="cls-2" d="m171.05,123.99s5.79,7.83,10.21.68,3.4-12.94-14.98-10.55l4.77,9.87Z"/>
    <line class="cls-2" x1="239.48" y1="137.61" x2="177.52" y2="189.01"/>
    <path class="cls-2" d="m207.14,218.97l51.06-55.83,59.91,54.13,26.89-20.77s-38.13-51.06-69.79-64"/>
    <path class="cls-2" d="m284.41,83.82l12.6,19.4,25.87-12.94,2.72,4.43s-19.06,26.55-33.7,21.45-12.6-13.62-12.6-13.62l2.04-19.74,3.06,1.02Z"/>
    <path class="cls-2" d="m327.31,87.23s2.72-8.51,10.55.34-6.81,6.47-6.81,6.47c0,0-5.11.34-3.74-6.81Z"/>
    <path class="cls-2" d="m202.03,219.31s7.49,17.36,18.72,17.02c0,0-2.72,12.94-12.6,10.89s-17.7-25.53-17.7-25.53l11.57-8.51v6.13Z"/>
    <path class="cls-2" d="m320.5,217.61s-1.02,20.43,11.23,10.21,34.04-16.34,35.4-25.19-24.17-4.09-24.17-4.09l-22.47,19.06Z"/>
    <ellipse class="cls-4" cx="88.29" cy="63.82" rx="2.17" ry="2.3"/>
    <circle class="cls-4" cx="101.44" cy="63.31" r="2.3"/>
    <circle class="cls-1" cx="96.84" cy="69.44" r="3.06"/>
    <circle class="cls-4" cx="250.8" cy="42.88" r="2.04"/>
    <circle class="cls-4" cx="264.46" cy="42.5" r="1.91"/>
    <path class="cls-1" d="m258.46,39.82s-3.06,6.38-2.55,8.68"/>
    <path class="cls-1" d="m253.86,59.48s4.09,3.06,6.64-.77"/>
    <path class="cls-4" d="m102.46,45.44s-22.21,21.36-26.04,19.49-.77-28.43,20.17-28.17c0,0,21.19,4.09,18.64,22.98,0,0-10.21-1.79-12.77-14.3Z"/>
    <path class="cls-2" d="m411.56,1.61s-24.51,2.04-21.79,24.85l9.19,25.87s10.89,2.04,12.6,0,10.89-9.19,11.23-14.64,2.38-18.72,2.38-18.72c0,0,3.4-10.89-13.62-17.36Z"/>
    <path class="cls-2" d="m398.63,56.42l.34-4.09s12.94,3.06,14.98-.68v7.83s-14.47-.51-15.32-3.06Z"/>
    <path class="cls-2" d="m385.18,58.12s40.34,1.02,43.06,1.87,1.36,55.15,1.36,55.15l-43.4-.34s-3.91-45.11-1.02-56.68Z"/>
    <path class="cls-2" d="m493.1,183.23l6.3,5.11s28.43-19.4,28.09-23.83-15.83,2.55-19.23,1.87-6.47-.85-6.47-.85l-8.68,17.7Z"/>
    <path class="cls-2" d="m430.97,68.67l46.64,7.49,4.43,10.55s-5.45,2.72-6.81,2.04-34.72-.68-40.17,2.38-5.11,2.04-5.11,2.04l1.02-24.51Z"/>
    <path class="cls-2" d="m484.07,87.74s5.79,7.83,10.21.68,3.4-12.94-14.98-10.55l4.77,9.87Z"/>
    <ellipse class="cls-4" cx="401.31" cy="27.57" rx="2.17" ry="2.3"/>
    <circle class="cls-4" cx="414.46" cy="27.06" r="2.3"/>
    <circle class="cls-1" cx="408.76" cy="35.65" r="2.47"/>
    <path class="cls-4" d="m415.48,9.18s-22.21,21.36-26.04,19.49-.77-28.43,20.17-28.17c0,0,21.19,4.09,18.64,22.98,0,0-10.21-1.79-12.77-14.3Z"/>
    <path class="cls-4" d="m257.44,26.54l-16.85,10.47s2.81,24.77-2.55,27.83l-25.02-7.4s25.79-41.36,37.79-40.85,24.77,4.34,28.09,10.47-8.17,5.36-8.17,5.36l-13.28-5.87Z"/>
    <polygon class="cls-3" points="389.4 16.67 367.6 48.76 355.39 68.87 369.06 70.37 395.9 45.24 389.4 16.67"/>
    <path class="cls-1" d="m403.9,41.52s3.83,3.57,8.17,1.02"/>
    <path class="cls-2" d="m88.33,74.97s3.57,6.13,10.21,5.11"/>
  </g>
</svg>